<svg width="26" height="26" viewBox="0 0 26 26" fill="none" xmlns="http://www.w3.org/2000/svg">
<path fill-rule="evenodd" clip-rule="evenodd" d="M6.94176 1.61828C5.54939 1.79438 4.32779 2.0404 3.13317 2.8418C0.308135 4.73697 -0.81665 8.65909 0.633796 11.7529C1.29604 13.1655 2.40263 14.1708 3.48863 15.2568L7.55113 19.3193L11.4613 23.2295C11.842 23.6102 12.4285 24.4918 13.0355 24.4309C13.6158 24.3727 14.1229 23.6148 14.5082 23.2295L17.9105 19.8272L22.0746 15.7139C23.011 14.7775 24.0541 13.878 24.7905 12.7686C26.0269 10.9058 26.3106 8.41438 25.5302 6.31934C25.2548 5.57986 24.8859 4.90271 24.3871 4.28809C22.2625 1.66954 18.5912 0.940622 15.5746 2.37467C14.9064 2.69231 14.2744 3.16449 13.7464 3.67946C13.5762 3.84549 13.2415 4.33605 12.9847 4.33605C12.7942 4.33605 12.5983 4.05401 12.4769 3.93262C12.0761 3.53187 11.6725 3.16365 11.2074 2.83769C10.0707 2.04117 8.34694 1.44055 6.94176 1.61828Z" fill="white"/>
<path fill-rule="evenodd" clip-rule="evenodd" d="M6.53557 3.14188C2.70236 3.66367 0.311019 7.80778 2.08054 11.3469C2.65524 12.4963 3.66091 13.3472 4.5551 14.2414L8.71917 18.4054L11.8676 21.5539C12.0968 21.783 12.6453 22.559 12.9848 22.559C13.3134 22.559 13.8304 21.8255 14.0512 21.6047L16.9965 18.6594L19.2309 16.425L21.9223 13.7336C22.5473 13.1085 23.2206 12.5196 23.6767 11.7531C24.4915 10.3834 24.6696 8.712 24.2505 7.18279C24.0876 6.58846 23.797 6.00664 23.4379 5.50701C21.681 3.06303 18.2138 2.38326 15.6762 4.0275C15.0098 4.45929 14.4569 5.05058 13.8989 5.60857C13.6388 5.86857 13.3455 6.25319 12.934 6.21886C12.6119 6.192 12.3858 5.92331 12.1723 5.71013C11.756 5.29459 11.3542 4.85659 10.9028 4.47888C9.71105 3.48189 8.09748 2.92927 6.53557 3.14188Z" fill="#39270D"/>
</svg>
