<svg width="18" height="16" viewBox="0 0 18 16" fill="none" xmlns="http://www.w3.org/2000/svg">
<path fill-rule="evenodd" clip-rule="evenodd" d="M4.05419 0.908704C1.10556 1.31008 -0.733928 4.49785 0.627242 7.22022C1.06932 8.1044 1.84291 8.75894 2.53075 9.44678L5.73388 12.6499L8.15575 15.0718C8.33202 15.2481 8.754 15.8449 9.01513 15.8449C9.26791 15.8449 9.66557 15.2807 9.83544 15.1108L12.1011 12.8452L13.8198 11.1265L15.8901 9.05616C16.3709 8.57534 16.8889 8.12237 17.2396 7.53272C17.8664 6.4791 18.0035 5.19341 17.681 4.01709C17.5558 3.55991 17.3322 3.11237 17.0559 2.72803C15.7045 0.848044 13.0374 0.325149 11.0854 1.58994C10.5728 1.92209 10.1475 2.37693 9.71825 2.80615C9.5182 3.00615 9.29257 3.30201 8.97607 3.27561C8.72826 3.25494 8.55439 3.04826 8.39013 2.88428C8.06991 2.56463 7.76083 2.22771 7.41357 1.93716C6.49687 1.17025 5.25566 0.745159 4.05419 0.908704Z" fill="#CD0000"/>
</svg>
