<svg width="40" height="20" viewBox="0 0 40 20" fill="none" xmlns="http://www.w3.org/2000/svg">
<rect width="40" height="20" rx="8" fill="#FFD600"/>
<path d="M16.2939 5.89062V13H15.3467L11.7676 7.5166V13H10.8252V5.89062H11.7676L15.3613 11.3887V5.89062H16.2939ZM20.0195 13.0977C19.6517 13.0977 19.318 13.0358 19.0186 12.9121C18.7223 12.7852 18.4668 12.6077 18.252 12.3799C18.0404 12.152 17.8776 11.8818 17.7637 11.5693C17.6497 11.2568 17.5928 10.915 17.5928 10.5439V10.3389C17.5928 9.90918 17.6562 9.52669 17.7832 9.19141C17.9102 8.85286 18.0827 8.56641 18.3008 8.33203C18.5189 8.09766 18.7663 7.92025 19.043 7.7998C19.3197 7.67936 19.6061 7.61914 19.9023 7.61914C20.2799 7.61914 20.6055 7.68424 20.8789 7.81445C21.1556 7.94466 21.3818 8.12695 21.5576 8.36133C21.7334 8.59245 21.8636 8.86589 21.9482 9.18164C22.0329 9.49414 22.0752 9.83594 22.0752 10.207V10.6123H18.1299V9.875H21.1719V9.80664C21.1589 9.57227 21.11 9.3444 21.0254 9.12305C20.944 8.90169 20.8138 8.7194 20.6348 8.57617C20.4557 8.43294 20.2116 8.36133 19.9023 8.36133C19.6973 8.36133 19.5085 8.40527 19.3359 8.49316C19.1634 8.5778 19.0153 8.70475 18.8916 8.87402C18.7679 9.04329 18.6719 9.25 18.6035 9.49414C18.5352 9.73828 18.501 10.0199 18.501 10.3389V10.5439C18.501 10.7946 18.5352 11.0306 18.6035 11.252C18.6751 11.4701 18.7777 11.6621 18.9111 11.8281C19.0479 11.9941 19.2122 12.1243 19.4043 12.2188C19.5996 12.3132 19.821 12.3604 20.0684 12.3604C20.3874 12.3604 20.6576 12.2952 20.8789 12.165C21.1003 12.0348 21.2939 11.8607 21.46 11.6426L22.0068 12.0771C21.8929 12.2497 21.748 12.4141 21.5723 12.5703C21.3965 12.7266 21.18 12.8535 20.9229 12.9512C20.6689 13.0488 20.3678 13.0977 20.0195 13.0977ZM24.4678 12.0625L25.8252 7.7168H26.4209L26.3037 8.58105L24.9219 13H24.3408L24.4678 12.0625ZM23.5547 7.7168L24.7119 12.1113L24.7949 13H24.1846L22.6514 7.7168H23.5547ZM27.7197 12.0771L28.8232 7.7168H29.7217L28.1885 13H27.583L27.7197 12.0771ZM26.5527 7.7168L27.8809 11.9893L28.0322 13H27.4561L26.0352 8.57129L25.918 7.7168H26.5527Z" fill="#0F0F0F"/>
</svg>
