<svg width="24" height="26" viewBox="0 0 24 26" fill="none" xmlns="http://www.w3.org/2000/svg">
<path fill-rule="evenodd" clip-rule="evenodd" d="M11.804 0.0307017C10.0297 0.242559 8.4847 0.732093 7.42388 2.29411C6.58206 3.53363 6.42114 5.10186 6.42114 6.55974C6.42114 9.65085 7.42115 13.2988 10.9407 13.9103C11.5028 14.0079 12.15 14.0272 12.718 13.9593C16.6795 13.4855 17.8768 9.17173 17.5509 5.74724C17.4728 4.92704 17.4096 4.14261 17.1144 3.36052C16.3358 1.29771 14.0604 -0.238727 11.804 0.0307017Z" fill="white"/>
<path fill-rule="evenodd" clip-rule="evenodd" d="M11.6008 1.50322C10.6472 1.62997 9.70603 1.86687 9.01978 2.60086C8.13765 3.54436 7.97325 4.7755 7.8892 6.0012C7.72277 8.43013 8.2474 11.9519 11.1438 12.4777C11.6865 12.5762 12.2246 12.5599 12.7688 12.4865C14.6355 12.235 15.657 10.5113 15.9553 8.79417C16.4264 6.08306 16.3011 2.25508 12.9719 1.59338C12.534 1.50636 12.0455 1.44411 11.6008 1.50322Z" fill="#39270D"/>
<path fill-rule="evenodd" clip-rule="evenodd" d="M8.24938 13.9998C7.92197 14.0456 7.66178 14.276 7.3861 14.4381C6.84109 14.7585 6.28523 15.0655 5.71032 15.3294C4.72085 15.7837 3.52202 15.9453 2.61267 16.5407C1.29026 17.4066 0.987666 19.0562 0.987666 20.5248C0.987666 21.3768 0.796748 22.9277 1.59782 23.4829C2.88899 24.3776 4.60771 24.8891 6.11657 25.2664C10.2702 26.3051 14.8102 26.2674 18.9134 24.9923C19.767 24.727 20.5869 24.3848 21.4017 24.0216C21.8029 23.8428 22.3545 23.6435 22.6513 23.3084C23.0385 22.8712 23.0267 21.9402 23.0267 21.3881C23.0269 19.7699 23.0397 18.0107 21.7572 16.8223C21.145 16.2551 20.3755 16.1417 19.6244 15.8625C18.5771 15.4733 17.5969 14.9947 16.6283 14.4387C16.1853 14.1844 15.4523 13.6562 15.0765 14.3316C14.8621 14.7172 15.0249 15.1104 15.3589 15.356C16.0046 15.8306 16.765 16.2145 17.4916 16.5482C18.0695 16.8136 18.663 17.0629 19.2689 17.2573C19.755 17.4132 20.275 17.5052 20.69 17.8213C21.6533 18.5548 21.6543 20.05 21.6068 21.1342C21.5915 21.4852 21.6616 21.9141 21.5166 22.246C21.383 22.5518 20.7758 22.7403 20.4877 22.8677C19.4407 23.3306 18.3458 23.6783 17.2377 23.9589C13.7572 24.8402 10.0444 24.7744 6.5736 23.8953C5.29711 23.572 3.89887 23.1785 2.76524 22.4874C2.32885 22.2213 2.4269 21.6776 2.40754 21.2357C2.35851 20.1159 2.33847 18.5858 3.3238 17.8172C3.78009 17.4613 4.36696 17.393 4.89782 17.2019C5.82915 16.8666 6.72011 16.4662 7.58923 15.9935C8.0109 15.7642 8.71162 15.4736 8.95321 15.0397C9.22534 14.5508 8.80709 13.9217 8.24938 13.9998Z" fill="white"/>
</svg>
