<svg width="20" height="19" viewBox="0 0 20 19" fill="red" xmlns="http://www.w3.org/2000/svg">
<path fill-rule="evenodd" clip-rule="evenodd" d="M5.36667 0.736834C4.29562 0.872298 3.35592 1.06154 2.43698 1.67801C0.263882 3.13583 -0.601337 6.15284 0.514391 8.53272C1.02381 9.61934 1.87503 10.3926 2.71042 11.228L5.83542 14.353L8.84323 17.3608C9.13606 17.6537 9.58728 18.3318 10.0542 18.285C10.5006 18.2402 10.8906 17.6572 11.187 17.3608L13.8042 14.7437L17.0073 11.5796C17.7276 10.8593 18.53 10.1674 19.0965 9.31397C20.0475 7.88111 20.2658 5.96461 19.6655 4.35304C19.4536 3.78421 19.1698 3.26332 18.7862 2.79053C17.1518 0.776267 14.3278 0.215559 12.0073 1.31867C11.4933 1.56301 11.0071 1.92623 10.601 2.32236C10.4701 2.45008 10.2126 2.82742 10.0151 2.82742C9.86853 2.82742 9.71789 2.61048 9.62448 2.5171C9.31618 2.20883 9.00573 1.92558 8.64792 1.67484C7.77356 1.06214 6.44758 0.60012 5.36667 0.736834Z" fill="#0F0F0F"/>
<path fill-rule="evenodd" clip-rule="evenodd" d="M5.05419 1.90873C2.10556 2.31011 0.266072 5.49788 1.62724 8.22025C2.06932 9.10443 2.84291 9.75897 3.53075 10.4468L6.73388 13.6499L9.15575 16.0718C9.33202 16.2481 9.754 16.845 10.0151 16.845C10.2679 16.845 10.6656 16.2807 10.8354 16.1109L13.1011 13.8452L14.8198 12.1265L16.8901 10.0562C17.3709 9.57537 17.8889 9.1224 18.2396 8.53275C18.8664 7.47913 19.0035 6.19344 18.681 5.01712C18.5558 4.55995 18.3322 4.1124 18.0559 3.72806C16.7045 1.84807 14.0374 1.32518 12.0854 2.58997C11.5728 2.92212 11.1475 3.37696 10.7183 3.80619C10.5182 4.00619 10.2926 4.30204 9.97607 4.27564C9.72826 4.25497 9.55439 4.04829 9.39013 3.88431C9.06991 3.56466 8.76083 3.22774 8.41357 2.93719C7.49687 2.17028 6.25566 1.74519 5.05419 1.90873Z" fill="white"/>
</svg>
