<svg width="40" height="20" viewBox="0 0 40 20" fill="none" xmlns="http://www.w3.org/2000/svg">
<rect width="40" height="20" rx="8" fill="#CD0000"/>
<path d="M11.5684 9.60645V10.3486H9.18555V9.60645H11.5684ZM15.3232 5.85156V13H14.4199V6.97949L12.5986 7.64355V6.82812L15.1816 5.85156H15.3232ZM22.4424 8.87891V9.96289C22.4424 10.5456 22.3903 11.0371 22.2861 11.4375C22.182 11.8379 22.0322 12.1602 21.8369 12.4043C21.6416 12.6484 21.4056 12.8258 21.1289 12.9365C20.8555 13.0439 20.5462 13.0977 20.2012 13.0977C19.9277 13.0977 19.6755 13.0635 19.4443 12.9951C19.2132 12.9268 19.0049 12.8177 18.8193 12.668C18.637 12.515 18.4808 12.3164 18.3506 12.0723C18.2204 11.8281 18.1211 11.5319 18.0527 11.1836C17.9844 10.8353 17.9502 10.4284 17.9502 9.96289V8.87891C17.9502 8.29622 18.0023 7.80794 18.1064 7.41406C18.2139 7.02018 18.3652 6.70443 18.5605 6.4668C18.7559 6.22591 18.9902 6.05339 19.2637 5.94922C19.5404 5.84505 19.8496 5.79297 20.1914 5.79297C20.4681 5.79297 20.722 5.82715 20.9531 5.89551C21.1875 5.96061 21.3958 6.06641 21.5781 6.21289C21.7604 6.35612 21.915 6.54818 22.042 6.78906C22.1722 7.02669 22.2715 7.31803 22.3398 7.66309C22.4082 8.00814 22.4424 8.41341 22.4424 8.87891ZM21.5342 10.1094V8.72754C21.5342 8.40853 21.5146 8.12858 21.4756 7.8877C21.4398 7.64355 21.3861 7.43522 21.3145 7.2627C21.2428 7.09017 21.1517 6.9502 21.041 6.84277C20.9336 6.73535 20.8083 6.65723 20.665 6.6084C20.5251 6.55632 20.3672 6.53027 20.1914 6.53027C19.9766 6.53027 19.7861 6.57096 19.6201 6.65234C19.4541 6.73047 19.3141 6.85579 19.2002 7.02832C19.0895 7.20085 19.0049 7.42708 18.9463 7.70703C18.8877 7.98698 18.8584 8.32715 18.8584 8.72754V10.1094C18.8584 10.4284 18.8763 10.71 18.9121 10.9541C18.9512 11.1982 19.0081 11.4098 19.083 11.5889C19.1579 11.7646 19.249 11.9095 19.3564 12.0234C19.4639 12.1374 19.5876 12.222 19.7275 12.2773C19.8708 12.3294 20.0286 12.3555 20.2012 12.3555C20.4225 12.3555 20.6162 12.3132 20.7822 12.2285C20.9482 12.1439 21.0866 12.012 21.1973 11.833C21.3112 11.6507 21.3958 11.418 21.4512 11.1348C21.5065 10.8483 21.5342 10.5065 21.5342 10.1094ZM23.5264 7.63379V7.25781C23.5264 6.98763 23.585 6.74186 23.7021 6.52051C23.8193 6.29915 23.987 6.12174 24.2051 5.98828C24.4232 5.85482 24.682 5.78809 24.9814 5.78809C25.2874 5.78809 25.5479 5.85482 25.7627 5.98828C25.9808 6.12174 26.1484 6.29915 26.2656 6.52051C26.3828 6.74186 26.4414 6.98763 26.4414 7.25781V7.63379C26.4414 7.89746 26.3828 8.13997 26.2656 8.36133C26.1517 8.58268 25.9857 8.76009 25.7676 8.89355C25.5527 9.02702 25.2939 9.09375 24.9912 9.09375C24.6885 9.09375 24.4264 9.02702 24.2051 8.89355C23.987 8.76009 23.8193 8.58268 23.7021 8.36133C23.585 8.13997 23.5264 7.89746 23.5264 7.63379ZM24.2051 7.25781V7.63379C24.2051 7.78353 24.2327 7.92513 24.2881 8.05859C24.3467 8.19206 24.4346 8.30111 24.5518 8.38574C24.6689 8.46712 24.8154 8.50781 24.9912 8.50781C25.167 8.50781 25.3118 8.46712 25.4258 8.38574C25.5397 8.30111 25.6243 8.19206 25.6797 8.05859C25.735 7.92513 25.7627 7.78353 25.7627 7.63379V7.25781C25.7627 7.10482 25.7334 6.96159 25.6748 6.82812C25.6195 6.69141 25.5332 6.58236 25.416 6.50098C25.3021 6.41634 25.1572 6.37402 24.9814 6.37402C24.8089 6.37402 24.6641 6.41634 24.5469 6.50098C24.4329 6.58236 24.3467 6.69141 24.2881 6.82812C24.2327 6.96159 24.2051 7.10482 24.2051 7.25781ZM26.9883 11.6377V11.2568C26.9883 10.9899 27.0469 10.7458 27.1641 10.5244C27.2812 10.3031 27.4489 10.1257 27.667 9.99219C27.8851 9.85872 28.1439 9.79199 28.4434 9.79199C28.7493 9.79199 29.0098 9.85872 29.2246 9.99219C29.4427 10.1257 29.6104 10.3031 29.7275 10.5244C29.8447 10.7458 29.9033 10.9899 29.9033 11.2568V11.6377C29.9033 11.9046 29.8447 12.1488 29.7275 12.3701C29.6136 12.5915 29.4476 12.7689 29.2295 12.9023C29.0146 13.0358 28.7559 13.1025 28.4531 13.1025C28.1504 13.1025 27.89 13.0358 27.6719 12.9023C27.4538 12.7689 27.2845 12.5915 27.1641 12.3701C27.0469 12.1488 26.9883 11.9046 26.9883 11.6377ZM27.667 11.2568V11.6377C27.667 11.7874 27.6947 11.9307 27.75 12.0674C27.8086 12.2008 27.8965 12.3099 28.0137 12.3945C28.1309 12.4759 28.2773 12.5166 28.4531 12.5166C28.6289 12.5166 28.7738 12.4759 28.8877 12.3945C29.0049 12.3099 29.0911 12.2008 29.1465 12.0674C29.2018 11.9339 29.2295 11.7907 29.2295 11.6377V11.2568C29.2295 11.1038 29.2002 10.9606 29.1416 10.8271C29.0863 10.6937 29 10.5863 28.8828 10.5049C28.7689 10.4202 28.6224 10.3779 28.4434 10.3779C28.2708 10.3779 28.126 10.4202 28.0088 10.5049C27.8949 10.5863 27.8086 10.6937 27.75 10.8271C27.6947 10.9606 27.667 11.1038 27.667 11.2568ZM28.668 6.90137L25.1963 12.458L24.6885 12.1357L28.1602 6.5791L28.668 6.90137Z" fill="white"/>
</svg>
