<svg width="32" height="34" viewBox="0 0 32 34" fill="none" xmlns="http://www.w3.org/2000/svg">
<g clip-path="url(#clip0_604_79)" filter="url(#filter0_d_604_79)">
<path fill-rule="evenodd" clip-rule="evenodd" d="M15.804 0.0307017C14.0297 0.242559 12.4847 0.732093 11.4239 2.29411C10.5821 3.53363 10.4211 5.10186 10.4211 6.55974C10.4211 9.65085 11.4212 13.2988 14.9407 13.9103C15.5028 14.0079 16.15 14.0272 16.718 13.9593C20.6795 13.4855 21.8768 9.17173 21.5509 5.74724C21.4728 4.92704 21.4096 4.14261 21.1144 3.36052C20.3358 1.29771 18.0604 -0.238727 15.804 0.0307017Z" fill="white"/>
<path fill-rule="evenodd" clip-rule="evenodd" d="M15.6008 1.50322C14.6472 1.62997 13.706 1.86687 13.0198 2.60086C12.1377 3.54436 11.9732 4.7755 11.8892 6.0012C11.7228 8.43013 12.2474 11.9519 15.1438 12.4777C15.6865 12.5762 16.2246 12.5599 16.7688 12.4865C18.6355 12.235 19.657 10.5113 19.9553 8.79417C20.4264 6.08306 20.3011 2.25508 16.9719 1.59338C16.534 1.50636 16.0455 1.44411 15.6008 1.50322Z" fill="#39270D"/>
<path fill-rule="evenodd" clip-rule="evenodd" d="M12.2494 13.9998C11.922 14.0456 11.6618 14.276 11.3861 14.4381C10.8411 14.7585 10.2852 15.0655 9.71032 15.3294C8.72085 15.7837 7.52202 15.9453 6.61267 16.5407C5.29026 17.4066 4.98767 19.0562 4.98767 20.5248C4.98767 21.3768 4.79675 22.9277 5.59782 23.4829C6.88899 24.3776 8.60771 24.8891 10.1166 25.2664C14.2702 26.3051 18.8102 26.2674 22.9134 24.9923C23.767 24.727 24.5869 24.3848 25.4017 24.0216C25.8029 23.8428 26.3545 23.6435 26.6513 23.3084C27.0385 22.8712 27.0267 21.9402 27.0267 21.3881C27.0269 19.7699 27.0397 18.0107 25.7572 16.8223C25.145 16.2551 24.3755 16.1417 23.6244 15.8625C22.5771 15.4733 21.5969 14.9947 20.6283 14.4387C20.1853 14.1844 19.4523 13.6562 19.0765 14.3316C18.8621 14.7172 19.0249 15.1104 19.3589 15.356C20.0046 15.8306 20.765 16.2145 21.4916 16.5482C22.0695 16.8136 22.663 17.0629 23.2689 17.2573C23.755 17.4132 24.275 17.5052 24.69 17.8213C25.6533 18.5548 25.6543 20.05 25.6068 21.1342C25.5915 21.4852 25.6616 21.9141 25.5166 22.246C25.383 22.5518 24.7758 22.7403 24.4877 22.8677C23.4407 23.3306 22.3458 23.6783 21.2377 23.9589C17.7572 24.8402 14.0444 24.7744 10.5736 23.8953C9.29711 23.572 7.89887 23.1785 6.76524 22.4874C6.32885 22.2213 6.4269 21.6776 6.40754 21.2357C6.35851 20.1159 6.33847 18.5858 7.3238 17.8172C7.78009 17.4613 8.36696 17.393 8.89782 17.2019C9.82915 16.8666 10.7201 16.4662 11.5892 15.9935C12.0109 15.7642 12.7116 15.4736 12.9532 15.0397C13.2253 14.5508 12.8071 13.9217 12.2494 13.9998Z" fill="white"/>
</g>
<defs>
<filter id="filter0_d_604_79" x="-1" y="0" width="34" height="34" filterUnits="userSpaceOnUse" color-interpolation-filters="sRGB">
<feFlood flood-opacity="0" result="BackgroundImageFix"/>
<feColorMatrix in="SourceAlpha" type="matrix" values="0 0 0 0 0 0 0 0 0 0 0 0 0 0 0 0 0 0 127 0" result="hardAlpha"/>
<feOffset dy="4"/>
<feGaussianBlur stdDeviation="2"/>
<feComposite in2="hardAlpha" operator="out"/>
<feColorMatrix type="matrix" values="0 0 0 0 0 0 0 0 0 0 0 0 0 0 0 0 0 0 0.25 0"/>
<feBlend mode="normal" in2="BackgroundImageFix" result="effect1_dropShadow_604_79"/>
<feBlend mode="normal" in="SourceGraphic" in2="effect1_dropShadow_604_79" result="shape"/>
</filter>
<clipPath id="clip0_604_79">
<rect width="26" height="26" fill="white" transform="translate(3)"/>
</clipPath>
</defs>
</svg>
