<svg width="18" height="16" viewBox="0 0 18 16" fill="none" xmlns="http://www.w3.org/2000/svg">
<path fill-rule="evenodd" clip-rule="evenodd" d="M4.05419 0.908734C1.10556 1.31011 -0.733928 4.49788 0.627242 7.22025C1.06932 8.10443 1.84291 8.75897 2.53075 9.44681L5.73388 12.6499L8.15575 15.0718C8.33202 15.2481 8.754 15.845 9.01513 15.845C9.26791 15.845 9.66557 15.2807 9.83544 15.1109L12.1011 12.8452L13.8198 11.1265L15.8901 9.05619C16.3709 8.57538 16.8889 8.1224 17.2396 7.53275C17.8664 6.47914 18.0035 5.19344 17.681 4.01712C17.5558 3.55995 17.3322 3.1124 17.0559 2.72806C15.7045 0.848075 13.0374 0.325179 11.0854 1.58997C10.5728 1.92212 10.1475 2.37696 9.71825 2.80619C9.5182 3.00619 9.29257 3.30204 8.97607 3.27564C8.72826 3.25497 8.55439 3.04829 8.39013 2.88431C8.06991 2.56466 7.76083 2.22774 7.41357 1.93719C6.49687 1.17028 5.25566 0.745189 4.05419 0.908734Z" fill="white"/>
</svg>
