<svg width="10" height="10" viewBox="0 0 10 10" fill="none" xmlns="http://www.w3.org/2000/svg">
<path fill-rule="evenodd" clip-rule="evenodd" d="M2.35586 6.33541C2.13654 7.18312 2.05234 8.08873 1.9082 8.9526C1.8705 9.17855 1.67913 9.7423 2.06289 9.77057C2.29216 9.78746 2.57055 9.55926 2.76601 9.45614C3.27985 9.185 3.80376 8.92689 4.30898 8.6401C4.48134 8.54225 4.81279 8.28854 5.01211 8.2912C5.21147 8.29386 5.52055 8.53937 5.6957 8.63407C6.21784 8.91647 6.74856 9.18663 7.27773 9.45565C7.48586 9.56144 7.88454 9.89086 8.11093 9.6839C8.30222 9.509 8.12451 9.01627 8.08237 8.79635C7.96923 8.20621 7.86963 7.61173 7.77085 7.019C7.74162 6.84369 7.61106 6.5036 7.67448 6.33541C7.74611 6.14554 8.05249 5.95128 8.1957 5.80807L9.50429 4.51901C9.66762 4.35568 10.1253 4.0506 9.9393 3.77765C9.80295 3.57757 9.33342 3.59894 9.11367 3.56727L7.33632 3.31337C7.15485 3.28722 6.806 3.30492 6.65688 3.19591C6.49819 3.07989 6.40288 2.73985 6.31587 2.56588L5.50522 0.944786C5.39758 0.729508 5.25871 0.212919 4.95351 0.245624C4.6861 0.274281 4.53049 0.790067 4.43742 1.00338C4.20632 1.53297 3.92771 2.04899 3.66928 2.56588C3.5781 2.7482 3.50029 3.06507 3.34433 3.1994C3.19963 3.32403 2.79624 3.30799 2.60976 3.33312C1.99025 3.41656 1.37272 3.52081 0.754293 3.61234C0.52171 3.64676 -0.0771689 3.63021 0.00827786 4.01119C0.0723582 4.29691 0.515096 4.57276 0.715231 4.77291L1.37929 5.41744L1.98476 6.00338C2.09742 6.11603 2.21013 6.26747 2.35586 6.33541Z" fill="#D3D3D3"/>
</svg>
