<svg width="26" height="26" viewBox="0 0 26 26" fill="none" xmlns="http://www.w3.org/2000/svg">
<path fill-rule="evenodd" clip-rule="evenodd" d="M7.34636 21.5585C6.92684 22.5811 6.78961 23.6752 7.42494 24.6562C8.8173 26.8058 12.247 26.0951 12.6979 23.5898C12.8346 22.8304 12.5761 22.2615 12.3737 21.5585H18.8737C18.4315 22.4229 18.3168 23.3985 18.7377 24.3007C19.5613 26.0655 21.986 26.5016 23.3887 25.1552C25.0613 23.5498 24.134 20.5334 21.819 20.2027C20.6634 20.0376 19.3815 20.1874 18.2135 20.1874H10.901H8.46355C7.82612 20.1874 7.18773 20.1863 6.69503 19.7151C5.95089 19.0035 6.22917 17.618 6.22917 16.6835C7.06427 17.1583 8.04505 17.0898 8.97136 17.0898H13.3893H20.905C22.2646 17.0898 23.6344 17.0784 24.484 15.8203C25.3453 14.5448 24.9675 12.5168 24.9675 11.0468V8.81245C24.9675 8.50408 25.0399 8.08494 24.9121 7.79758C24.6748 7.264 23.7295 7.33033 23.2409 7.25962L18.2643 6.57147L9.47917 5.35932L7.14324 5.03328C6.91827 5.0007 6.48168 5.03251 6.31055 4.8646C6.15102 4.70798 6.22917 4.29387 6.22917 4.08979C6.22917 3.51577 6.42011 2.51553 6.12304 2.00854C5.91047 1.64571 5.37696 1.51707 5.01042 1.36774L2.6237 0.36262C2.30198 0.231547 1.91403 -0.0137777 1.5573 0.00060563C0.918908 0.0263465 0.64434 0.877515 1.15328 1.26442C1.85431 1.79734 2.97705 2.07729 3.79167 2.41346C4.05516 2.5222 4.65388 2.65053 4.77666 2.93264C4.90817 3.23483 4.8073 3.7629 4.8073 4.08979V6.7812V16.2265C4.8073 17.9794 4.46033 20.1124 6.22917 21.1646C6.58128 21.3741 6.95566 21.4574 7.34636 21.5585Z" fill="white"/>
<path fill-rule="evenodd" clip-rule="evenodd" d="M6.22903 6.375V12.6719C6.22903 13.4848 6.04668 14.5816 6.68822 15.2062C7.49488 15.9914 9.39804 15.6172 10.4439 15.6172H19.1783H21.5142C21.9503 15.6172 22.3887 15.6671 22.7837 15.4471C23.518 15.0383 23.5454 14.3312 23.5454 13.5859V10.4375V9.21875C23.5454 9.08615 23.5829 8.86525 23.4641 8.7708C23.3054 8.64479 22.9293 8.66784 22.7329 8.63876L20.9048 8.38486C18.5218 8.03212 16.1306 7.72972 13.7447 7.39723C11.2763 7.05331 8.71738 6.48183 6.22903 6.375Z" fill="#39270D"/>
<path fill-rule="evenodd" clip-rule="evenodd" d="M9.63149 21.633C7.74426 21.9731 8.2748 24.8319 10.1393 24.4802C11.9512 24.1383 11.4392 21.3072 9.63149 21.633Z" fill="#39270D"/>
<path fill-rule="evenodd" clip-rule="evenodd" d="M21.0572 21.6356C19.2359 22.0306 19.8457 24.8659 21.6666 24.4774C23.5043 24.0854 22.8882 21.2384 21.0572 21.6356Z" fill="#39270D"/>
</svg>
