<svg width="20" height="20" viewBox="0 0 20 20" fill="none" xmlns="http://www.w3.org/2000/svg">
<path fill-rule="evenodd" clip-rule="evenodd" d="M8.46838 0.014385C6.19953 0.156919 4.13963 0.847637 2.49239 2.49488C-1.23396 6.22122 -0.615279 12.675 3.78088 15.6054C5.87922 17.0042 8.63381 17.4307 11.0465 16.6606C11.8496 16.4042 12.6113 16.0355 13.3121 15.5673C13.4857 15.4512 13.9214 14.9803 14.1324 15.0409C14.5019 15.1469 14.9553 15.8172 15.2262 16.0881L17.9606 18.8224C18.3254 19.1873 18.8964 20.0463 19.484 19.9662C19.8523 19.916 20.0648 19.5125 19.9288 19.174C19.7982 18.8491 19.4523 18.5954 19.2106 18.3537L16.0856 15.2287L15.3043 14.4474C15.2159 14.3589 15.0376 14.2332 15.0315 14.0959C15.0249 13.9469 15.2268 13.774 15.312 13.6662C15.553 13.3609 15.7607 13.0279 15.9518 12.6896C16.503 11.7139 16.8396 10.6362 16.9729 9.52556C17.5507 4.70962 13.5319 -0.303716 8.46838 0.014385Z" fill="#0F0F0F"/>
<path fill-rule="evenodd" clip-rule="evenodd" d="M8.15594 1.22186C7.54681 1.30183 6.9533 1.34404 6.35907 1.5258C4.54086 2.08194 2.98768 3.36942 2.07437 5.03341C-0.242363 9.25435 2.31265 14.6108 6.945 15.672C7.69461 15.8438 8.52621 15.8947 9.28875 15.8035C12.7078 15.3946 15.4752 12.6709 15.8056 9.21309C16.1622 5.48023 13.4629 1.8637 9.71844 1.31186C9.2161 1.23783 8.66327 1.15525 8.15594 1.22186Z" fill="white"/>
</svg>
